<svg width="151" height="50" viewBox="0 0 151 50" fill="none" xmlns="http://www.w3.org/2000/svg">
    <path d="M75.0368 19.0204C74.9976 22.9228 72.9338 25.6725 68.2694 25.6725H58.789V12.367H68.4993C72.9338 12.367 75.0747 15.7536 75.0368 19.0204ZM77.2913 19.0599C77.2534 14.7177 74.3105 10.3742 68.4993 10.3742H56.7227V38.2606H58.7865V27.7046H66.0881L75.3398 38.2606H78.0541L68.609 27.5849C74.4581 27.5849 77.3252 23.6007 77.286 19.0599H77.2913ZM40.5546 12.4459L33.3705 29.4184H47.7412L40.5546 12.4459ZM51.4874 38.2606L48.5445 31.4097H32.5645L29.6583 38.2606H27.4378L39.4456 10.3742H41.7014L53.704 38.2606H51.4874ZM24.6503 33.0419C22.4128 35.3202 19.4073 36.5937 16.279 36.589C8.55671 36.589 4.58065 30.9319 4.50358 24.3984C4.4657 17.7041 8.47964 11.9681 16.279 11.9681C17.8238 11.9571 19.3555 12.2647 20.7857 12.8733C22.216 13.4819 23.5165 14.3793 24.6124 15.514L26.0271 14.2386C23.4382 11.553 19.9319 10.0484 16.279 10.0557C7.10422 10.0557 2.4398 17.0276 2.51556 24.4773C2.55474 32.0073 7.25704 38.5804 16.279 38.5804C19.9319 38.5877 23.4382 37.0831 26.0271 34.3975L24.6503 33.0419Z" fill="#000117" />
    <path d="M144.415 30.4737C149.641 30.4737 149.678 38.0398 144.415 38.0398C139.262 38.0398 139.262 30.4737 144.415 30.4737ZM147.915 27.5565L148.063 10.8272H140.923L141.031 27.5565H147.915ZM122.81 16.6946C118.651 16.6946 115.781 19.8598 115.781 24.3437C115.781 28.8608 118.693 31.9929 122.81 31.9929C127.08 31.9929 129.839 28.8278 129.839 24.3504C129.839 19.7187 127.08 16.7078 122.81 16.7078V16.6946ZM122.81 38.5171C114.382 38.5171 108.493 33.383 108.493 24.3504C108.493 15.4628 114.382 10.1717 122.81 10.1717C131.274 10.1717 137.128 15.3441 137.128 24.3372C137.128 33.3698 131.274 38.5039 122.81 38.5039V38.5171ZM104.371 14.417C100.984 10.8272 97.8181 10.0557 94.2492 10.0557C84.5688 10.0557 80.1528 17.3092 80.1528 24.3768C80.1528 31.4443 84.0182 38.5805 94.2123 38.5805C99.1815 38.5805 103.672 36.7341 105.291 33.292V21.2907H95.5386V27.2742H99.2173V30.748C97.7453 31.8663 95.61 32.1367 94.2492 32.1367C89.0602 32.1367 87.3287 27.8531 87.3287 24.3794C87.3287 19.0909 90.0544 16.4665 94.2492 16.4665C95.9794 16.4665 98.2615 16.9689 100.137 18.8219L104.371 14.417Z" fill="#000117" />
</svg>
    