<svg width="169" height="37" viewBox="0 0 169 37" fill="none" xmlns="http://www.w3.org/2000/svg">
    <g clip-path="url(#clip0_446_3308)">
        <path d="M110.256 7.20971C110.256 7.20971 109.214 7.23086 105.726 7.23086C101.77 7.23086 98.4737 10.0217 97.4528 13.8063C97.2401 14.5886 97.1338 16.0897 97.1338 16.9354V35.224H88.9028V16.2589H88.9666C88.9666 6.78686 95.4961 0 106.194 0C108.938 0 110.256 0 110.256 0V7.20971Z" fill="#000117" />
        <path d="M131.588 7.20971C131.588 7.20971 130.546 7.23086 127.058 7.23086C123.102 7.23086 119.806 10.0217 118.785 13.8063C118.572 14.5886 118.466 16.0897 118.466 16.9354V35.224H110.235V16.2589H110.299C110.299 6.76571 116.828 0 127.505 0C130.249 0 131.567 0 131.567 0V7.20971H131.588Z" fill="#000117" />
        <path d="M27.6917 12.5165L33.6681 8.47823C30.3928 3.59423 24.7566 0.359375 18.3548 0.359375C8.23094 0.359375 0 8.47823 0 18.4999C0 28.5217 8.23094 36.6617 18.3548 36.6617C24.7566 36.6617 30.3715 33.4268 33.6681 28.5217L27.6917 24.4834C27.5003 24.7582 27.3088 25.0119 27.0962 25.2657C27.0749 25.2868 27.0536 25.3291 27.0324 25.3502C26.8409 25.5617 26.6495 25.7731 26.4581 25.9845C26.3518 26.1114 26.2241 26.2171 26.0965 26.3228C26.054 26.3651 25.9902 26.4074 25.9477 26.4497C24.0335 28.1411 21.5238 29.1982 18.7589 29.1982C12.8037 29.1982 7.99698 24.4199 7.99698 18.5211C7.97571 12.6011 12.8037 7.8228 18.7376 7.8228C21.0559 7.8228 23.204 8.5628 24.9693 9.81023C25.1607 9.93709 25.3309 10.0639 25.501 10.2119C25.5648 10.2754 25.6499 10.3388 25.7137 10.3811C26.4794 10.9942 27.1387 11.7131 27.6917 12.5165Z" fill="#000117" />
        <path d="M169.064 36.4716V31.9259V29.9173V22.1368C169.064 17.2951 168.659 14.6311 168.213 13.0876C167.702 11.3328 166.852 9.64134 165.831 8.18248C165.767 8.09791 165.703 8.01334 165.661 7.92876C165.512 7.71734 165.363 7.52705 165.193 7.31562C165.129 7.23105 165.065 7.14648 165.001 7.06191C164.81 6.82934 164.618 6.59676 164.406 6.36419C164.385 6.32191 164.342 6.30076 164.321 6.25848C164.087 6.00476 163.853 5.75105 163.598 5.51848C163.534 5.45505 163.449 5.39162 163.385 5.32819C163.193 5.15905 163.002 4.96876 162.811 4.79962C162.726 4.73619 162.64 4.65162 162.555 4.58819C162.343 4.41905 162.13 4.22876 161.896 4.05962C161.832 4.01734 161.79 3.97505 161.726 3.93276C161.449 3.72134 161.173 3.53105 160.875 3.34076C160.811 3.29848 160.726 3.25619 160.663 3.19276C160.429 3.04476 160.216 2.91791 159.982 2.76991C159.876 2.70648 159.79 2.66419 159.684 2.60076C159.45 2.47391 159.216 2.34705 158.982 2.22019C158.897 2.17791 158.833 2.13562 158.748 2.09334C158.429 1.94533 158.11 1.79733 157.791 1.67048C157.727 1.64933 157.664 1.62819 157.579 1.58591C157.323 1.48019 157.047 1.37448 156.792 1.28991C156.685 1.24762 156.579 1.22648 156.473 1.18419C156.217 1.09962 155.962 1.01505 155.707 0.951621C155.601 0.930478 155.516 0.888192 155.409 0.867049C155.069 0.782478 154.707 0.697906 154.367 0.613335C154.324 0.613335 154.261 0.592192 154.218 0.592192C153.899 0.528763 153.601 0.486478 153.282 0.444192C153.176 0.423049 153.048 0.423049 152.942 0.401906C152.687 0.359621 152.41 0.338478 152.134 0.317335C152.027 0.317335 151.921 0.296192 151.794 0.296192C151.432 0.275049 151.049 0.253906 150.666 0.253906C150.539 0.253906 150.411 0.253906 150.283 0.275049C150.156 0.275049 150.028 0.253906 149.901 0.253906C139.777 0.253906 131.546 8.41505 131.546 18.5002C131.546 28.5642 139.756 36.7465 149.901 36.7465C150.028 36.7465 150.156 36.7465 150.283 36.7253C150.411 36.7253 150.539 36.7465 150.666 36.7465C151.07 36.7465 151.453 36.7253 151.836 36.7042C151.921 36.7042 152.006 36.7042 152.091 36.6831C152.474 36.6619 152.836 36.6196 153.219 36.5562C153.282 36.5562 153.346 36.5351 153.431 36.5351C153.75 36.4928 154.091 36.4293 154.41 36.3659C154.473 36.3448 154.558 36.3448 154.622 36.3236C154.984 36.2391 155.324 36.1545 155.664 36.0699C155.749 36.0488 155.856 36.0065 155.941 35.9853C156.26 35.9008 156.579 35.7951 156.877 35.6682C156.941 35.6471 156.983 35.6259 157.047 35.6048C157.366 35.4991 157.664 35.3722 157.961 35.2242C158.068 35.1819 158.153 35.1396 158.259 35.0973C158.557 34.9493 158.876 34.8013 159.174 34.6533C159.259 34.6111 159.344 34.5688 159.429 34.5053C159.663 34.3785 159.918 34.2305 160.152 34.1036C160.237 34.0613 160.322 33.9979 160.429 33.9345C160.705 33.7653 160.982 33.5751 161.258 33.3848C161.343 33.3213 161.449 33.2579 161.535 33.1945C161.768 33.0253 162.024 32.8351 162.258 32.6448C162.3 32.6025 162.343 32.5813 162.385 32.5391L169.064 36.4716ZM161.003 18.5002C161.003 21.0796 160.088 23.4265 158.557 25.2659C158.451 25.3928 158.344 25.5196 158.217 25.6465C157.749 26.1539 157.26 26.6191 156.707 27.0208C156.579 27.1265 156.43 27.2322 156.281 27.3168C155.282 27.9933 154.176 28.5008 152.985 28.8179C152.134 29.0505 151.241 29.1562 150.305 29.1562C144.392 29.1139 139.628 24.3568 139.628 18.4791C139.628 12.6013 144.413 7.84419 150.305 7.80191C151.219 7.80191 152.113 7.92876 152.985 8.16134C154.176 8.47848 155.282 8.98591 156.281 9.66248C156.43 9.76819 156.558 9.85276 156.707 9.95848C157.26 10.3602 157.77 10.8253 158.217 11.3328C158.323 11.4596 158.451 11.5865 158.557 11.7133C160.088 13.5739 161.003 15.9419 161.003 18.5002Z" fill="#000117" />
        <path d="M85.3503 18.5C85.3503 8.288 77.2044 0 67.0593 0C56.9142 0 48.896 8.288 48.896 18.5C48.896 28.712 56.893 37 67.0593 37C67.3784 37 67.6761 37 67.9952 36.9789C68.0164 36.9789 68.0164 36.9789 68.0377 36.9789C74.0567 36.6829 79.544 34.0823 82.8193 29.6L76.8854 25.2023C74.4395 28.12 70.6112 29.5577 67.0381 29.5577C62.4228 29.5577 57.7437 26.2594 57.1907 21.6503H85.1376C85.329 20.6354 85.3503 19.5783 85.3503 18.5ZM76.8854 14.8846H57.212C57.7437 10.3177 62.4441 6.97714 67.0593 6.97714C71.6746 6.99829 76.3324 10.3389 76.8854 14.8846Z" fill="#000117" />
        <path d="M36.9858 1.77637V35.2032H45.4295V23.0672V1.77637H36.9858Z" fill="#000117" />
    </g>
    <defs>
        <clipPath id="clip0_446_3308">
            <rect width="169" height="37" fill="white" />
        </clipPath>
    </defs>
</svg>
    