<svg width="612" height="78" viewBox="0 0 612 78" fill="none" xmlns="http://www.w3.org/2000/svg">
    <rect x="8.94186" y="8.94186" width="602.116" height="68.1163" rx="34.0581" stroke="#000117" stroke-width="1.88372" stroke-dasharray="10 10" />
    <rect width="604" height="70" rx="35" fill="#F2D19D" />
    <path d="M571.789 27.622L551.737 47.6689C551.417 47.9776 551.012 48.1373 550.607 48.1373C550.192 48.1373 549.787 47.9776 549.478 47.6689L538.472 36.6713C537.843 36.0538 537.843 35.0424 538.472 34.4143L542.361 30.5178C542.957 29.9216 544.023 29.9216 544.619 30.5178L550.607 36.501L565.641 21.4684C565.94 21.1703 566.345 21 566.77 21C567.196 21 567.601 21.1703 567.899 21.4684L571.788 25.365C572.418 25.9931 572.418 27.0045 571.789 27.622Z" fill="#597DFF" />
    <path d="M578.054 28.2831L578.054 28.2831L578.049 28.288L559.116 47.1226C558.961 47.27 558.778 47.3356 558.608 47.3356C558.422 47.3356 558.244 47.2656 558.106 47.1281L547.711 36.7925L547.711 36.7925L547.706 36.7877C547.436 36.5239 547.429 36.0862 547.711 35.8059L547.711 35.8052L551.384 32.144C551.384 32.1439 551.384 32.1438 551.384 32.1437C551.635 31.8939 552.137 31.894 552.389 32.144L558.044 37.767L558.608 38.3281L559.172 37.7668L573.371 23.6394C573.504 23.5068 573.684 23.4318 573.872 23.4318C574.062 23.4318 574.241 23.5068 574.374 23.6388C574.375 23.639 574.375 23.6392 574.375 23.6394L578.047 27.3006L578.049 27.3018C578.331 27.582 578.324 28.0194 578.054 28.2831Z" fill="#F2D19D" stroke="#000117" stroke-width="1.6" />
    <path d="M79.33 26.6H90.55V29.02H86.216V42H83.686V29.02H79.33V26.6ZM98.0529 30.714C99.3289 30.714 100.348 31.1247 101.111 31.946C101.888 32.7527 102.277 33.8527 102.277 35.246V42H99.9009V35.488C99.9009 34.6667 99.6809 34.036 99.2409 33.596C98.8009 33.156 98.1995 32.936 97.4369 32.936C96.5715 32.936 95.8895 33.2073 95.3909 33.75C94.8922 34.278 94.6429 35.0627 94.6429 36.104V42H92.2669V26.6H94.6429V32.408C95.3762 31.2787 96.5129 30.714 98.0529 30.714ZM115.461 37.512H106.705C106.881 38.3333 107.277 38.9713 107.893 39.426C108.524 39.8807 109.301 40.108 110.225 40.108C111.472 40.108 112.418 39.6533 113.063 38.744L115.021 39.888C113.951 41.4867 112.345 42.286 110.203 42.286C108.429 42.286 106.984 41.7433 105.869 40.658C104.769 39.558 104.219 38.172 104.219 36.5C104.219 34.872 104.762 33.5007 105.847 32.386C106.918 31.2713 108.311 30.714 110.027 30.714C111.626 30.714 112.946 31.2787 113.987 32.408C115.029 33.5373 115.549 34.9087 115.549 36.522C115.549 36.8153 115.52 37.1453 115.461 37.512ZM106.683 35.576H113.151C112.99 34.7107 112.623 34.0433 112.051 33.574C111.494 33.1047 110.812 32.87 110.005 32.87C109.125 32.87 108.392 33.112 107.805 33.596C107.219 34.08 106.845 34.74 106.683 35.576ZM128.904 26.314V28.602C127.173 28.4553 126.308 29.1813 126.308 30.78V31H128.904V33.288H126.308V42H123.932V33.288H122.26V31H123.932V30.78C123.932 29.2547 124.357 28.1033 125.208 27.326C126.059 26.5487 127.291 26.2113 128.904 26.314ZM137.708 36.896V31H140.084V42H137.708V40.592C136.975 41.7213 135.838 42.286 134.298 42.286C133.022 42.286 131.996 41.8827 131.218 41.076C130.456 40.2547 130.074 39.1473 130.074 37.754V31H132.45V37.512C132.45 38.3333 132.67 38.964 133.11 39.404C133.55 39.844 134.152 40.064 134.914 40.064C135.78 40.064 136.462 39.8 136.96 39.272C137.459 38.7293 137.708 37.9373 137.708 36.896ZM149.001 31V33.288H146.273V38.568C146.273 39.0227 146.375 39.3527 146.581 39.558C146.786 39.7487 147.087 39.8587 147.483 39.888C147.893 39.9027 148.399 39.8953 149.001 39.866V42C147.182 42.22 145.877 42.066 145.085 41.538C144.293 40.9953 143.897 40.0053 143.897 38.568V33.288H141.873V31H143.897V28.624L146.273 27.92V31H149.001ZM158.677 36.896V31H161.053V42H158.677V40.592C157.944 41.7213 156.807 42.286 155.267 42.286C153.991 42.286 152.964 41.8827 152.187 41.076C151.424 40.2547 151.043 39.1473 151.043 37.754V31H153.419V37.512C153.419 38.3333 153.639 38.964 154.079 39.404C154.519 39.844 155.12 40.064 155.883 40.064C156.748 40.064 157.43 39.8 157.929 39.272C158.428 38.7293 158.677 37.9373 158.677 36.896ZM166.207 31V32.848C166.809 31.484 167.938 30.802 169.595 30.802V33.376C168.701 33.3173 167.909 33.5373 167.219 34.036C166.545 34.52 166.207 35.3267 166.207 36.456V42H163.831V31H166.207ZM181.461 37.512H172.705C172.881 38.3333 173.277 38.9713 173.893 39.426C174.524 39.8807 175.301 40.108 176.225 40.108C177.472 40.108 178.418 39.6533 179.063 38.744L181.021 39.888C179.951 41.4867 178.345 42.286 176.203 42.286C174.429 42.286 172.984 41.7433 171.869 40.658C170.769 39.558 170.219 38.172 170.219 36.5C170.219 34.872 170.762 33.5007 171.847 32.386C172.918 31.2713 174.311 30.714 176.027 30.714C177.626 30.714 178.946 31.2787 179.987 32.408C181.029 33.5373 181.549 34.9087 181.549 36.522C181.549 36.8153 181.52 37.1453 181.461 37.512ZM172.683 35.576H179.151C178.99 34.7107 178.623 34.0433 178.051 33.574C177.494 33.1047 176.812 32.87 176.005 32.87C175.125 32.87 174.392 33.112 173.805 33.596C173.219 34.08 172.845 34.74 172.683 35.576ZM191.384 28.91C191.091 29.2033 190.739 29.35 190.328 29.35C189.917 29.35 189.558 29.2033 189.25 28.91C188.957 28.602 188.81 28.2427 188.81 27.832C188.81 27.4213 188.957 27.0693 189.25 26.776C189.543 26.468 189.903 26.314 190.328 26.314C190.753 26.314 191.113 26.468 191.406 26.776C191.699 27.0693 191.846 27.4213 191.846 27.832C191.846 28.2427 191.692 28.602 191.384 28.91ZM191.516 42H189.14V31H191.516V42ZM196.344 34.036C196.344 34.3733 196.52 34.652 196.872 34.872C197.224 35.0773 197.738 35.2753 198.412 35.466C198.926 35.5833 199.373 35.708 199.754 35.84C200.136 35.972 200.539 36.17 200.964 36.434C201.39 36.6833 201.712 37.0207 201.932 37.446C202.167 37.8567 202.277 38.3407 202.262 38.898C202.262 39.954 201.852 40.7827 201.03 41.384C200.209 41.9853 199.19 42.286 197.972 42.286C196.887 42.286 195.956 42.0587 195.178 41.604C194.401 41.1493 193.836 40.5187 193.484 39.712L195.53 38.524C195.897 39.58 196.711 40.108 197.972 40.108C199.219 40.108 199.842 39.6973 199.842 38.876C199.842 38.2747 199.146 37.8053 197.752 37.468C197.224 37.336 196.777 37.204 196.41 37.072C196.058 36.94 195.662 36.7493 195.222 36.5C194.797 36.2507 194.467 35.9207 194.232 35.51C194.012 35.0993 193.91 34.6227 193.924 34.08C193.924 33.068 194.306 32.254 195.068 31.638C195.846 31.022 196.806 30.714 197.95 30.714C198.86 30.714 199.666 30.9193 200.37 31.33C201.089 31.726 201.639 32.2833 202.02 33.002L200.018 34.124C199.652 33.288 198.962 32.87 197.95 32.87C197.481 32.87 197.092 32.9727 196.784 33.178C196.491 33.3833 196.344 33.6693 196.344 34.036ZM220.477 37.512H211.721C211.897 38.3333 212.293 38.9713 212.909 39.426C213.54 39.8807 214.317 40.108 215.241 40.108C216.488 40.108 217.434 39.6533 218.079 38.744L220.037 39.888C218.966 41.4867 217.36 42.286 215.219 42.286C213.444 42.286 212 41.7433 210.885 40.658C209.785 39.558 209.235 38.172 209.235 36.5C209.235 34.872 209.778 33.5007 210.863 32.386C211.934 31.2713 213.327 30.714 215.043 30.714C216.642 30.714 217.962 31.2787 219.003 32.408C220.044 33.5373 220.565 34.9087 220.565 36.522C220.565 36.8153 220.536 37.1453 220.477 37.512ZM211.699 35.576H218.167C218.006 34.7107 217.639 34.0433 217.067 33.574C216.51 33.1047 215.828 32.87 215.021 32.87C214.141 32.87 213.408 33.112 212.821 33.596C212.234 34.08 211.86 34.74 211.699 35.576ZM227.817 36.368L231.931 42H229.181L226.453 38.238L223.703 42H220.931L225.067 36.346L221.151 31H223.901L226.431 34.476L228.961 31H231.733L227.817 36.368ZM237.924 42.286C236.266 42.286 234.88 41.7287 233.766 40.614C232.666 39.4847 232.116 38.1133 232.116 36.5C232.116 34.8573 232.666 33.486 233.766 32.386C234.88 31.2713 236.266 30.714 237.924 30.714C238.994 30.714 239.97 30.9707 240.85 31.484C241.73 31.9973 242.39 32.6867 242.83 33.552L240.784 34.74C240.534 34.212 240.153 33.8013 239.64 33.508C239.141 33.2 238.562 33.046 237.902 33.046C236.934 33.046 236.12 33.376 235.46 34.036C234.814 34.7107 234.492 35.532 234.492 36.5C234.492 37.468 234.814 38.2893 235.46 38.964C236.12 39.624 236.934 39.954 237.902 39.954C238.547 39.954 239.126 39.8073 239.64 39.514C240.168 39.206 240.564 38.788 240.828 38.26L242.874 39.426C242.404 40.306 241.722 41.0027 240.828 41.516C239.948 42.0293 238.98 42.286 237.924 42.286ZM246.835 28.91C246.542 29.2033 246.19 29.35 245.779 29.35C245.368 29.35 245.009 29.2033 244.701 28.91C244.408 28.602 244.261 28.2427 244.261 27.832C244.261 27.4213 244.408 27.0693 244.701 26.776C244.994 26.468 245.354 26.314 245.779 26.314C246.204 26.314 246.564 26.468 246.857 26.776C247.15 27.0693 247.297 27.4213 247.297 27.832C247.297 28.2427 247.143 28.602 246.835 28.91ZM246.967 42H244.591V31H246.967V42ZM255.864 31V33.288H253.136V38.568C253.136 39.0227 253.239 39.3527 253.444 39.558C253.649 39.7487 253.95 39.8587 254.346 39.888C254.757 39.9027 255.263 39.8953 255.864 39.866V42C254.045 42.22 252.74 42.066 251.948 41.538C251.156 40.9953 250.76 40.0053 250.76 38.568V33.288H248.736V31H250.76V28.624L253.136 27.92V31H255.864ZM260.263 28.91C259.969 29.2033 259.617 29.35 259.207 29.35C258.796 29.35 258.437 29.2033 258.129 28.91C257.835 28.602 257.689 28.2427 257.689 27.832C257.689 27.4213 257.835 27.0693 258.129 26.776C258.422 26.468 258.781 26.314 259.207 26.314C259.632 26.314 259.991 26.468 260.285 26.776C260.578 27.0693 260.725 27.4213 260.725 27.832C260.725 28.2427 260.571 28.602 260.263 28.91ZM260.395 42H258.019V31H260.395V42ZM268.94 30.714C270.216 30.714 271.235 31.1247 271.998 31.946C272.775 32.7527 273.164 33.8527 273.164 35.246V42H270.788V35.488C270.788 34.6667 270.568 34.036 270.128 33.596C269.688 33.156 269.086 32.936 268.324 32.936C267.458 32.936 266.776 33.2073 266.278 33.75C265.779 34.278 265.53 35.0627 265.53 36.104V42H263.154V31H265.53V32.408C266.263 31.2787 267.4 30.714 268.94 30.714ZM284.478 32.628V31H286.81V41.494C286.81 43.166 286.26 44.4493 285.16 45.344C284.075 46.2387 282.74 46.686 281.156 46.686C278.619 46.686 276.881 45.7987 275.942 44.024L277.988 42.836C278.56 43.9653 279.631 44.53 281.2 44.53C282.227 44.53 283.026 44.2587 283.598 43.716C284.185 43.188 284.478 42.4473 284.478 41.494V40.152C283.583 41.428 282.307 42.066 280.65 42.066C279.11 42.066 277.797 41.516 276.712 40.416C275.641 39.3013 275.106 37.9593 275.106 36.39C275.106 34.806 275.641 33.4713 276.712 32.386C277.783 31.2713 279.095 30.714 280.65 30.714C282.307 30.714 283.583 31.352 284.478 32.628ZM278.472 38.854C279.147 39.514 279.983 39.844 280.98 39.844C281.977 39.844 282.806 39.514 283.466 38.854C284.141 38.194 284.478 37.3727 284.478 36.39C284.478 35.4073 284.141 34.586 283.466 33.926C282.806 33.266 281.977 32.936 280.98 32.936C279.983 32.936 279.147 33.266 278.472 33.926C277.812 34.586 277.482 35.4073 277.482 36.39C277.482 37.3727 277.812 38.194 278.472 38.854ZM291.009 38.964C291.464 38.964 291.853 39.1253 292.175 39.448C292.498 39.7707 292.659 40.1593 292.659 40.614C292.659 41.0687 292.498 41.4573 292.175 41.78C291.853 42.1027 291.464 42.264 291.009 42.264C290.555 42.264 290.166 42.1027 289.843 41.78C289.521 41.4573 289.359 41.0687 289.359 40.614C289.359 40.1593 289.513 39.7707 289.821 39.448C290.144 39.1253 290.54 38.964 291.009 38.964ZM303.371 26.6V39.58H309.641V42H300.841V26.6H303.371ZM321.647 37.512H312.891C313.067 38.3333 313.463 38.9713 314.079 39.426C314.709 39.8807 315.487 40.108 316.411 40.108C317.657 40.108 318.603 39.6533 319.249 38.744L321.207 39.888C320.136 41.4867 318.53 42.286 316.389 42.286C314.614 42.286 313.169 41.7433 312.055 40.658C310.955 39.558 310.405 38.172 310.405 36.5C310.405 34.872 310.947 33.5007 312.033 32.386C313.103 31.2713 314.497 30.714 316.213 30.714C317.811 30.714 319.131 31.2787 320.173 32.408C321.214 33.5373 321.735 34.9087 321.735 36.522C321.735 36.8153 321.705 37.1453 321.647 37.512ZM312.869 35.576H319.337C319.175 34.7107 318.809 34.0433 318.237 33.574C317.679 33.1047 316.997 32.87 316.191 32.87C315.311 32.87 314.577 33.112 313.991 33.596C313.404 34.08 313.03 34.74 312.869 35.576ZM329.62 31V33.288H326.892V38.568C326.892 39.0227 326.994 39.3527 327.2 39.558C327.405 39.7487 327.706 39.8587 328.102 39.888C328.512 39.9027 329.018 39.8953 329.62 39.866V42C327.801 42.22 326.496 42.066 325.704 41.538C324.912 40.9953 324.516 40.0053 324.516 38.568V33.288H322.492V31H324.516V28.624L326.892 27.92V31H329.62ZM332.757 26.6H335.397L333.857 32.32H331.877L332.757 26.6ZM338.291 34.036C338.291 34.3733 338.467 34.652 338.819 34.872C339.171 35.0773 339.685 35.2753 340.359 35.466C340.873 35.5833 341.32 35.708 341.701 35.84C342.083 35.972 342.486 36.17 342.911 36.434C343.337 36.6833 343.659 37.0207 343.879 37.446C344.114 37.8567 344.224 38.3407 344.209 38.898C344.209 39.954 343.799 40.7827 342.977 41.384C342.156 41.9853 341.137 42.286 339.919 42.286C338.834 42.286 337.903 42.0587 337.125 41.604C336.348 41.1493 335.783 40.5187 335.431 39.712L337.477 38.524C337.844 39.58 338.658 40.108 339.919 40.108C341.166 40.108 341.789 39.6973 341.789 38.876C341.789 38.2747 341.093 37.8053 339.699 37.468C339.171 37.336 338.724 37.204 338.357 37.072C338.005 36.94 337.609 36.7493 337.169 36.5C336.744 36.2507 336.414 35.9207 336.179 35.51C335.959 35.0993 335.857 34.6227 335.871 34.08C335.871 33.068 336.253 32.254 337.015 31.638C337.793 31.022 338.753 30.714 339.897 30.714C340.807 30.714 341.613 30.9193 342.317 31.33C343.036 31.726 343.586 32.2833 343.967 33.002L341.965 34.124C341.599 33.288 340.909 32.87 339.897 32.87C339.428 32.87 339.039 32.9727 338.731 33.178C338.438 33.3833 338.291 33.6693 338.291 34.036ZM353.932 34.036C353.932 34.3733 354.108 34.652 354.46 34.872C354.812 35.0773 355.325 35.2753 356 35.466C356.513 35.5833 356.961 35.708 357.342 35.84C357.723 35.972 358.127 36.17 358.552 36.434C358.977 36.6833 359.3 37.0207 359.52 37.446C359.755 37.8567 359.865 38.3407 359.85 38.898C359.85 39.954 359.439 40.7827 358.618 41.384C357.797 41.9853 356.777 42.286 355.56 42.286C354.475 42.286 353.543 42.0587 352.766 41.604C351.989 41.1493 351.424 40.5187 351.072 39.712L353.118 38.524C353.485 39.58 354.299 40.108 355.56 40.108C356.807 40.108 357.43 39.6973 357.43 38.876C357.43 38.2747 356.733 37.8053 355.34 37.468C354.812 37.336 354.365 37.204 353.998 37.072C353.646 36.94 353.25 36.7493 352.81 36.5C352.385 36.2507 352.055 35.9207 351.82 35.51C351.6 35.0993 351.497 34.6227 351.512 34.08C351.512 33.068 351.893 32.254 352.656 31.638C353.433 31.022 354.394 30.714 355.538 30.714C356.447 30.714 357.254 30.9193 357.958 31.33C358.677 31.726 359.227 32.2833 359.608 33.002L357.606 34.124C357.239 33.288 356.55 32.87 355.538 32.87C355.069 32.87 354.68 32.9727 354.372 33.178C354.079 33.3833 353.932 33.6693 353.932 34.036ZM367.596 30.714C368.872 30.714 369.891 31.1247 370.654 31.946C371.431 32.7527 371.82 33.8527 371.82 35.246V42H369.444V35.488C369.444 34.6667 369.224 34.036 368.784 33.596C368.344 33.156 367.742 32.936 366.98 32.936C366.114 32.936 365.432 33.2073 364.934 33.75C364.435 34.278 364.186 35.0627 364.186 36.104V42H361.81V26.6H364.186V32.408C364.919 31.2787 366.056 30.714 367.596 30.714ZM383.09 32.562V31H385.466V42H383.09V40.416C382.196 41.6627 380.912 42.286 379.24 42.286C377.73 42.286 376.439 41.7287 375.368 40.614C374.298 39.4993 373.762 38.128 373.762 36.5C373.762 34.872 374.298 33.5007 375.368 32.386C376.439 31.2713 377.73 30.714 379.24 30.714C380.912 30.714 382.196 31.33 383.09 32.562ZM377.128 39.03C377.788 39.69 378.617 40.02 379.614 40.02C380.612 40.02 381.44 39.69 382.1 39.03C382.76 38.3553 383.09 37.512 383.09 36.5C383.09 35.488 382.76 34.652 382.1 33.992C381.44 33.3173 380.612 32.98 379.614 32.98C378.617 32.98 377.788 33.3173 377.128 33.992C376.468 34.652 376.138 35.488 376.138 36.5C376.138 37.4973 376.468 38.3407 377.128 39.03ZM394.462 30.714C395.958 30.714 397.248 31.2787 398.334 32.408C399.404 33.5227 399.94 34.8867 399.94 36.5C399.94 38.128 399.404 39.4993 398.334 40.614C397.263 41.7287 395.972 42.286 394.462 42.286C392.804 42.286 391.521 41.67 390.612 40.438V46.4H388.236V31H390.612V32.584C391.506 31.3373 392.79 30.714 394.462 30.714ZM391.602 39.03C392.262 39.69 393.09 40.02 394.088 40.02C395.085 40.02 395.914 39.69 396.574 39.03C397.234 38.3553 397.564 37.512 397.564 36.5C397.564 35.488 397.234 34.652 396.574 33.992C395.914 33.3173 395.085 32.98 394.088 32.98C393.09 32.98 392.262 33.3173 391.602 33.992C390.942 34.652 390.612 35.488 390.612 36.5C390.612 37.4973 390.942 38.3407 391.602 39.03ZM412.719 37.512H403.963C404.139 38.3333 404.535 38.9713 405.151 39.426C405.782 39.8807 406.559 40.108 407.483 40.108C408.73 40.108 409.676 39.6533 410.321 38.744L412.279 39.888C411.208 41.4867 409.602 42.286 407.461 42.286C405.686 42.286 404.242 41.7433 403.127 40.658C402.027 39.558 401.477 38.172 401.477 36.5C401.477 34.872 402.02 33.5007 403.105 32.386C404.176 31.2713 405.569 30.714 407.285 30.714C408.884 30.714 410.204 31.2787 411.245 32.408C412.286 33.5373 412.807 34.9087 412.807 36.522C412.807 36.8153 412.778 37.1453 412.719 37.512ZM403.941 35.576H410.409C410.248 34.7107 409.881 34.0433 409.309 33.574C408.752 33.1047 408.07 32.87 407.263 32.87C406.383 32.87 405.65 33.112 405.063 33.596C404.476 34.08 404.102 34.74 403.941 35.576ZM422.642 28.91C422.348 29.2033 421.996 29.35 421.586 29.35C421.175 29.35 420.816 29.2033 420.508 28.91C420.214 28.602 420.068 28.2427 420.068 27.832C420.068 27.4213 420.214 27.0693 420.508 26.776C420.801 26.468 421.16 26.314 421.586 26.314C422.011 26.314 422.37 26.468 422.664 26.776C422.957 27.0693 423.104 27.4213 423.104 27.832C423.104 28.2427 422.95 28.602 422.642 28.91ZM422.774 42H420.398V31H422.774V42ZM431.67 31V33.288H428.942V38.568C428.942 39.0227 429.045 39.3527 429.25 39.558C429.456 39.7487 429.756 39.8587 430.152 39.888C430.563 39.9027 431.069 39.8953 431.67 39.866V42C429.852 42.22 428.546 42.066 427.754 41.538C426.962 40.9953 426.566 40.0053 426.566 38.568V33.288H424.542V31H426.566V28.624L428.942 27.92V31H431.67ZM445.571 31V33.288H442.843V38.568C442.843 39.0227 442.946 39.3527 443.151 39.558C443.356 39.7487 443.657 39.8587 444.053 39.888C444.464 39.9027 444.97 39.8953 445.571 39.866V42C443.752 42.22 442.447 42.066 441.655 41.538C440.863 40.9953 440.467 40.0053 440.467 38.568V33.288H438.443V31H440.467V28.624L442.843 27.92V31H445.571ZM456.581 40.614C455.466 41.7287 454.095 42.286 452.467 42.286C450.839 42.286 449.467 41.7287 448.353 40.614C447.223 39.4847 446.659 38.1133 446.659 36.5C446.659 34.8867 447.223 33.5153 448.353 32.386C449.467 31.2713 450.839 30.714 452.467 30.714C454.095 30.714 455.466 31.2713 456.581 32.386C457.71 33.5153 458.275 34.8867 458.275 36.5C458.275 38.1133 457.71 39.4847 456.581 40.614ZM449.035 36.5C449.035 37.4973 449.365 38.326 450.025 38.986C450.685 39.646 451.499 39.976 452.467 39.976C453.435 39.976 454.249 39.646 454.909 38.986C455.569 38.326 455.899 37.4973 455.899 36.5C455.899 35.5027 455.569 34.674 454.909 34.014C454.249 33.354 453.435 33.024 452.467 33.024C451.499 33.024 450.685 33.354 450.025 34.014C449.365 34.674 449.035 35.5027 449.035 36.5ZM469.179 32.628V31H471.511V41.494C471.511 43.166 470.961 44.4493 469.861 45.344C468.776 46.2387 467.441 46.686 465.857 46.686C463.32 46.686 461.582 45.7987 460.643 44.024L462.689 42.836C463.261 43.9653 464.332 44.53 465.901 44.53C466.928 44.53 467.727 44.2587 468.299 43.716C468.886 43.188 469.179 42.4473 469.179 41.494V40.152C468.284 41.428 467.008 42.066 465.351 42.066C463.811 42.066 462.498 41.516 461.413 40.416C460.342 39.3013 459.807 37.9593 459.807 36.39C459.807 34.806 460.342 33.4713 461.413 32.386C462.484 31.2713 463.796 30.714 465.351 30.714C467.008 30.714 468.284 31.352 469.179 32.628ZM463.173 38.854C463.848 39.514 464.684 39.844 465.681 39.844C466.678 39.844 467.507 39.514 468.167 38.854C468.842 38.194 469.179 37.3727 469.179 36.39C469.179 35.4073 468.842 34.586 468.167 33.926C467.507 33.266 466.678 32.936 465.681 32.936C464.684 32.936 463.848 33.266 463.173 33.926C462.513 34.586 462.183 35.4073 462.183 36.39C462.183 37.3727 462.513 38.194 463.173 38.854ZM484.907 37.512H476.151C476.327 38.3333 476.723 38.9713 477.339 39.426C477.969 39.8807 478.747 40.108 479.671 40.108C480.917 40.108 481.863 39.6533 482.509 38.744L484.467 39.888C483.396 41.4867 481.79 42.286 479.649 42.286C477.874 42.286 476.429 41.7433 475.315 40.658C474.215 39.558 473.665 38.172 473.665 36.5C473.665 34.872 474.207 33.5007 475.293 32.386C476.363 31.2713 477.757 30.714 479.473 30.714C481.071 30.714 482.391 31.2787 483.433 32.408C484.474 33.5373 484.995 34.9087 484.995 36.522C484.995 36.8153 484.965 37.1453 484.907 37.512ZM476.129 35.576H482.597C482.435 34.7107 482.069 34.0433 481.497 33.574C480.939 33.1047 480.257 32.87 479.451 32.87C478.571 32.87 477.837 33.112 477.251 33.596C476.664 34.08 476.29 34.74 476.129 35.576ZM492.879 31V33.288H490.151V38.568C490.151 39.0227 490.254 39.3527 490.459 39.558C490.665 39.7487 490.965 39.8587 491.361 39.888C491.772 39.9027 492.278 39.8953 492.879 39.866V42C491.061 42.22 489.755 42.066 488.963 41.538C488.171 40.9953 487.775 40.0053 487.775 38.568V33.288H485.751V31H487.775V28.624L490.151 27.92V31H492.879ZM500.82 30.714C502.096 30.714 503.116 31.1247 503.878 31.946C504.656 32.7527 505.044 33.8527 505.044 35.246V42H502.668V35.488C502.668 34.6667 502.448 34.036 502.008 33.596C501.568 33.156 500.967 32.936 500.204 32.936C499.339 32.936 498.657 33.2073 498.158 33.75C497.66 34.278 497.41 35.0627 497.41 36.104V42H495.034V26.6H497.41V32.408C498.144 31.2787 499.28 30.714 500.82 30.714ZM518.229 37.512H509.473C509.649 38.3333 510.045 38.9713 510.661 39.426C511.291 39.8807 512.069 40.108 512.993 40.108C514.239 40.108 515.185 39.6533 515.831 38.744L517.789 39.888C516.718 41.4867 515.112 42.286 512.971 42.286C511.196 42.286 509.751 41.7433 508.637 40.658C507.537 39.558 506.987 38.172 506.987 36.5C506.987 34.872 507.529 33.5007 508.615 32.386C509.685 31.2713 511.079 30.714 512.795 30.714C514.393 30.714 515.713 31.2787 516.755 32.408C517.796 33.5373 518.317 34.9087 518.317 36.522C518.317 36.8153 518.287 37.1453 518.229 37.512ZM509.451 35.576H515.919C515.757 34.7107 515.391 34.0433 514.819 33.574C514.261 33.1047 513.579 32.87 512.773 32.87C511.893 32.87 511.159 33.112 510.573 33.596C509.986 34.08 509.612 34.74 509.451 35.576ZM522.783 31V32.848C523.385 31.484 524.514 30.802 526.171 30.802V33.376C525.277 33.3173 524.485 33.5373 523.795 34.036C523.121 34.52 522.783 35.3267 522.783 36.456V42H520.407V31H522.783ZM527.81 38.964C528.265 38.964 528.653 39.1253 528.976 39.448C529.299 39.7707 529.46 40.1593 529.46 40.614C529.46 41.0687 529.299 41.4573 528.976 41.78C528.653 42.1027 528.265 42.264 527.81 42.264C527.355 42.264 526.967 42.1027 526.644 41.78C526.321 41.4573 526.16 41.0687 526.16 40.614C526.16 40.1593 526.314 39.7707 526.622 39.448C526.945 39.1253 527.341 38.964 527.81 38.964Z" fill="#000117" />
    <path fill-rule="evenodd" clip-rule="evenodd" d="M65.3648 23.5439V47.3483H23.5298V23.5439H65.3648Z" fill="#FCF8F2" />
    <path fill-rule="evenodd" clip-rule="evenodd" d="M65.6293 23C65.7664 23 65.8792 23.1069 65.8927 23.244L65.8941 23.2717V47.6196C65.8941 47.7603 65.7899 47.876 65.6564 47.8899L65.6293 47.8913H23.2648C23.1277 47.8913 23.0149 47.7844 23.0014 47.6473L23 47.6196V23.2717C23 23.131 23.1042 23.0153 23.2377 23.0014L23.2648 23H65.6293ZM65.3648 23.8145L44.5991 38.7328C44.5162 38.7924 44.4084 38.7978 44.321 38.7491L44.2954 38.7328L23.5298 23.8147V47.3481H65.3648V23.8145ZM64.8179 23.5439H24.0757L44.4469 38.1785L64.8179 23.5439Z" fill="#000117" />
    <path d="M65.8927 23.244L66.3921 23.2194L66.3915 23.207L66.3903 23.1947L65.8927 23.244ZM65.8941 23.2717H66.3941V23.2594L66.3935 23.2472L65.8941 23.2717ZM65.6564 47.8899L65.6823 48.3892L65.6953 48.3886L65.7082 48.3872L65.6564 47.8899ZM65.6293 47.8913V48.3913H65.6423L65.6552 48.3906L65.6293 47.8913ZM23.0014 47.6473L22.502 47.6719L22.5026 47.6843L22.5038 47.6966L23.0014 47.6473ZM23 47.6196H22.5V47.6319L22.5006 47.6441L23 47.6196ZM23.2377 23.0014L23.2118 22.5021L23.1988 22.5027L23.1859 22.5041L23.2377 23.0014ZM23.2648 23V22.5H23.2518L23.2389 22.5007L23.2648 23ZM65.3648 23.8145H65.8648V22.8396L65.073 23.4084L65.3648 23.8145ZM44.5991 38.7328L44.8908 39.1389L44.8908 39.1389L44.5991 38.7328ZM44.321 38.7491L44.0529 39.1711L44.065 39.1788L44.0776 39.1858L44.321 38.7491ZM44.2954 38.7328L44.0037 39.1389L44.0153 39.1472L44.0274 39.1549L44.2954 38.7328ZM23.5298 23.8147L23.8215 23.4086L23.0298 22.8398V23.8147H23.5298ZM23.5298 47.3481H23.0298V47.8481H23.5298V47.3481ZM65.3648 47.3481V47.8481H65.8648V47.3481H65.3648ZM64.8179 23.5439L65.1096 23.95L66.3708 23.0439H64.8179V23.5439ZM24.0757 23.5439V23.0439H22.5227L23.784 23.95L24.0757 23.5439ZM44.4469 38.1785L44.1552 38.5846L44.4469 38.7942L44.7386 38.5846L44.4469 38.1785ZM65.6293 23.5C65.4963 23.5 65.4056 23.3989 65.3951 23.2932L66.3903 23.1947C66.3527 22.815 66.0365 22.5 65.6293 22.5V23.5ZM65.3933 23.2685L65.3947 23.2963L66.3935 23.2472L66.3921 23.2194L65.3933 23.2685ZM65.3941 23.2717V47.6196H66.3941V23.2717H65.3941ZM65.3941 47.6196C65.3941 47.512 65.4757 47.406 65.6045 47.3926L65.7082 48.3872C66.1041 48.3459 66.3941 48.0085 66.3941 47.6196H65.3941ZM65.6305 47.3906L65.6034 47.392L65.6552 48.3906L65.6823 48.3892L65.6305 47.3906ZM65.6293 47.3913H23.2648V48.3913H65.6293V47.3913ZM23.2648 47.3913C23.3977 47.3913 23.4885 47.4924 23.4989 47.5981L22.5038 47.6966C22.5414 48.0763 22.8576 48.3913 23.2648 48.3913V47.3913ZM23.5008 47.6228L23.4994 47.595L22.5006 47.6441L22.502 47.6719L23.5008 47.6228ZM23.5 47.6196V23.2717H22.5V47.6196H23.5ZM23.5 23.2717C23.5 23.3793 23.4184 23.4853 23.2895 23.4987L23.1859 22.5041C22.79 22.5454 22.5 22.8828 22.5 23.2717H23.5ZM23.2636 23.5007L23.2907 23.4993L23.2389 22.5007L23.2118 22.5021L23.2636 23.5007ZM23.2648 23.5H65.6293V22.5H23.2648V23.5ZM65.073 23.4084L44.3074 38.3268L44.8908 39.1389L65.6565 24.2205L65.073 23.4084ZM44.3074 38.3268C44.3827 38.2727 44.4834 38.2672 44.5644 38.3123L44.0776 39.1858C44.3334 39.3284 44.6498 39.3121 44.8908 39.1389L44.3074 38.3268ZM44.5891 38.327L44.5635 38.3108L44.0274 39.1549L44.0529 39.1711L44.5891 38.327ZM44.5872 38.3268L23.8215 23.4086L23.2381 24.2207L44.0037 39.1389L44.5872 38.3268ZM23.0298 23.8147V47.3481H24.0298V23.8147H23.0298ZM23.5298 47.8481H65.3648V46.8481H23.5298V47.8481ZM65.8648 47.3481V23.8145H64.8648V47.3481H65.8648ZM64.8179 23.0439H24.0757V24.0439H64.8179V23.0439ZM23.784 23.95L44.1552 38.5846L44.7386 37.7724L24.3674 23.1379L23.784 23.95ZM44.7386 38.5846L65.1096 23.95L64.5261 23.1379L44.1552 37.7724L44.7386 38.5846Z" fill="#000117" />
</svg>
    