<svg width="150" height="50" fill="none" xmlns="http://www.w3.org/2000/svg">
    <path d="M102.339 18.287a14.656 14.656 0 0 0-4.117-10.36 14.27 14.27 0 0 0-10.149-4.353c-7.915 0-14.153 6.583-14.153 14.713C73.92 26.417 80.163 33 88.073 33h.764c4.7-.234 8.964-2.294 11.518-5.858l-4.63-3.493a9.97 9.97 0 0 1-7.652 3.46c-3.597 0-7.249-2.62-7.668-6.277h21.784c.121-.831.171-1.672.15-2.512v-.033Zm-6.593-2.866H80.406c.42-3.624 4.07-6.278 7.674-6.278 3.602 0 7.232 2.654 7.668 6.278Z" fill="#000117" />
    <path fill-rule="evenodd" clip-rule="evenodd" d="M53.54 32.276V17.214h-.043c0-7.53-5.093-12.91-13.406-12.91a15.188 15.188 0 0 0-6.453 1.434h-6.27v26.538h6.388V16.854a6.77 6.77 0 0 1 .619-3.27 6.684 6.684 0 0 1 6.07-3.525c3.074.048 5.727 2.194 6.454 5.22.164.818.247 1.65.247 2.485v14.512h6.394ZM127.133 13.537l4.657-3.183c-3.463-5.301-9.946-7.675-15.954-5.843-6.007 1.833-10.119 7.439-10.119 13.796 0 6.358 4.112 11.964 10.119 13.797 6.008 1.832 12.491-.542 15.954-5.843l-4.657-3.205a7.225 7.225 0 0 1-.468.616l-.054.066c-.139.169-.29.338-.446.495-.156.159-.183.18-.28.273l-.118.109a8.286 8.286 0 0 1-11.391-.187c-3.163-3.077-3.445-8.106-.648-11.527a8.291 8.291 0 0 1 11.297-1.495c.14.098.28.201.42.316l.161.136a8.583 8.583 0 0 1 1.527 1.695v-.016ZM15 5.74v26.538h6.582V5.74H15ZM64.895 21.966v-10.31h6.728V5.738h-6.728V0l-6.34 1.793V22.2c.189 5.995 4.303 10.397 10.965 10.397.722.004 1.443-.068 2.151-.212v-5.45c-.58 0-1.172.039-1.77.039a4.806 4.806 0 0 1-3.535-1.435 4.94 4.94 0 0 1-1.417-3.584l-.053.011Z" fill="#000117" />
    <path d="M135 3.27a2.53 2.53 0 0 0-1.529-2.348 2.472 2.472 0 0 0-2.725.537 2.553 2.553 0 0 0-.548 2.758 2.495 2.495 0 0 0 2.307 1.565c.66.002 1.294-.26 1.762-.732A2.533 2.533 0 0 0 135 3.27Zm-.371 0a2.18 2.18 0 0 1-1.315 2.035 2.131 2.131 0 0 1-2.357-.467 2.202 2.202 0 0 1-.461-2.388 2.15 2.15 0 0 1 2.009-1.333c1.177.015 2.124.986 2.124 2.18v-.028Z" fill="#000117" />
    <path d="m133.684 4.43-.747-.85a.75.75 0 0 0 .683-.795.842.842 0 0 0-.266-.616.814.814 0 0 0-.627-.218h-1.167v2.55h.398V3.62h.538l.769.883h.467l-.043-.071h-.005Zm-.957-2.108a.444.444 0 0 1 .343.126.46.46 0 0 1 .136.342.438.438 0 0 1-.135.342.426.426 0 0 1-.344.116h-.769v-.926h.769ZM21.188 43.887a3.52 3.52 0 0 0-2.49-1.03 3.348 3.348 0 0 0-2.567 1.017 3.443 3.443 0 0 0-.96 2.618c0 1.842 1.124 3.504 3.538 3.504 1 .019 1.96-.407 2.624-1.166v-2.725h-2.877v.758h2.114v1.635c-.515.453-1.174.7-1.856.697a2.52 2.52 0 0 1-1.95-.748 2.592 2.592 0 0 1-.738-1.977 2.68 2.68 0 0 1 .724-2.022 2.607 2.607 0 0 1 1.964-.817 2.989 2.989 0 0 1 2.006.801l.484-.545h-.016Zm4.243-.893-3.044 6.877h.925l.656-1.515h3.877l.667 1.515h.914l-3.043-6.877h-.952Zm2.086 4.577h-3.226l1.613-3.71 1.613 3.71Zm8.066 2.3h1.076l-2.243-2.545a1.956 1.956 0 0 0 1.431-.638 2.01 2.01 0 0 0 .521-1.493 2.194 2.194 0 0 0-.68-1.596 2.134 2.134 0 0 0-1.616-.583H30.97v6.855h.84v-2.463h1.65l2.113 2.48.011-.017Zm-1.565-3.27h-2.21v-2.839h2.237c.39-.017.768.132 1.045.41.277.278.426.661.412 1.056.02.4-.134.787-.422 1.06s-.68.404-1.072.357l.01-.044Zm6.63-3.607-3.065 6.877h.92l.694-1.515h3.877l.666 1.515h.91l-3.05-6.877h-.952Zm2.082 4.577h-3.227l1.613-3.71 1.614 3.71Zm3.457-4.577v6.877h.834v-5.248l4.167 5.248h.58v-6.877h-.838v5.264l-4.157-5.264h-.586Zm9.437.768v6.109h.834v-6.109h2.312v-.768h-5.469v.768h2.323Zm4.69 6.109h.844v-6.877h-.85v6.877h.005Zm3.124 0h4.92v-.829h-4.087v-2.316h3.764v-.795h-3.764v-2.18h3.931v-.757h-4.77v6.877h.006Zm11.383 0h1.076l-2.237-2.545a1.95 1.95 0 0 0 1.43-.638c.368-.404.555-.944.517-1.493a2.194 2.194 0 0 0-.68-1.596 2.134 2.134 0 0 0-1.617-.583h-3.08v6.855h.843v-2.463h1.646l2.113 2.48-.01-.017Zm-1.559-3.27h-2.2v-2.839H73.3c.388-.015.766.134 1.041.412.276.278.424.66.41 1.054.019.399-.136.785-.424 1.058a1.334 1.334 0 0 1-1.07.359l.005-.044Zm5.797-2.866v6.136h.833v-6.109h2.323v-.768h-5.48v.768l2.324-.027Zm7.152 6.108h4.92v-.8h-4.076v-2.316h3.764v-.796h-3.764v-2.18h3.93v-.757h-4.763v6.877l-.011-.028Zm6.78 0h.845v-6.85h-.866v6.878l.022-.028Zm3.125-6.877v6.905h.828v-5.248l4.167 5.248h.586v-6.877h-.833v5.264l-4.157-5.264-.591-.027Zm7.856 0v6.916h.828v-2.883h3.7v-.79h-3.7V43.81h3.866v-.817l-4.694-.027Zm8.405 0-3.044 6.877h.92l.661-1.514h3.872l.672 1.514h.909l-3.049-6.85-.941-.026Zm2.102 4.605h-3.226l1.613-3.71 1.613 3.71Zm8.83 1.384-.592-.588a2.768 2.768 0 0 1-1.93.795c-1.485 0-2.689-1.22-2.689-2.724 0-1.505 1.204-2.725 2.689-2.725a2.67 2.67 0 0 1 1.898.763l.586-.545a3.497 3.497 0 0 0-2.484-1.03 3.343 3.343 0 0 0-2.557.994 3.436 3.436 0 0 0-.981 2.592 3.371 3.371 0 0 0 .992 2.558 3.281 3.281 0 0 0 2.546.946 3.528 3.528 0 0 0 2.522-1.02v-.016Zm6.453.916h.839v-6.877h-.839v2.975h-3.877v-2.975h-.845v6.877h.839v-3.106h3.877v3.106h.006Z" fill="#000117" />
</svg>